<svg xmlns="http://www.w3.org/2000/svg" xmlns:xlink="http://www.w3.org/1999/xlink" xml:space="preserve" width="3.93701in" height="3.93701in" style="shape-rendering:geometricPrecision; text-rendering:geometricPrecision; image-rendering:optimizeQuality; fill-rule:evenodd; clip-rule:evenodd" viewBox="0 0 3937 3937">
 <defs>
  <style type="text/css">
   <![CDATA[
    .fil4 {fill:none}
    .fil1 {fill:#12151C}
    .fil3 {fill:#F1B90C}
    .fil2 {fill:#FEFEFE}
    .fil0 {fill:white}
   ]]>
  </style>
   <clipPath id="id0">
    <path d="M1969 75c1045,0 1893,848 1893,1894 0,1045 -848,1893 -1893,1893 -1046,0 -1894,-848 -1894,-1893 0,-1046 848,-1894 1894,-1894z"></path>
   </clipPath>
 </defs>
 <g id="Layer_x0020_1">
  <metadata id="CorelCorpID_0Corel-Layer"></metadata>
  <path class="fil0" d="M1969 75c1045,0 1893,848 1893,1894 0,1045 -848,1893 -1893,1893 -1046,0 -1894,-848 -1894,-1893 0,-1046 848,-1894 1894,-1894z"></path>
  <g style="clip-path:url(#id0)">
   <g id="_2516305153056">
    <g>
     <path id="1" class="fil1" d="M75 1795l0 348c7,12 35,209 43,246 39,172 155,523 284,607 73,47 153,35 253,26 275,-27 206,-102 206,-694 0,-98 0,-195 0,-293 0,-255 -17,-323 265,-322 96,1 203,-15 264,39 73,65 58,119 58,235l0 900c174,-30 218,-46 217,-237l0 -928c0,-151 -32,-321 78,-386 59,-35 362,-40 426,-4 117,64 85,222 85,381 0,308 -2,618 0,926 153,-62 217,-49 216,-254l0 -1202c0,-94 -12,-150 34,-213 56,-75 285,-77 410,-60 167,24 145,167 145,339 0,320 -6,644 0,963 51,-28 105,-76 155,-115 162,-125 305,-261 436,-417 113,-136 159,-193 79,-402 -52,-136 -123,-264 -196,-373 -137,-206 -355,-421 -576,-550 -124,-73 -238,-130 -388,-180 -74,-25 -144,-45 -223,-61 -38,-8 -232,-33 -244,-39l-268 0c-28,15 -146,20 -188,27 -599,105 -1110,485 -1375,1021 -163,331 -179,641 -196,672z"></path>
     <path class="fil2" d="M75 2143l0 1719 1753 0c-32,-16 -222,-32 -283,-48 -213,-55 -544,-177 -680,-314 29,-14 193,-35 242,-45 269,-54 419,-89 694,-177 555,-179 1071,-453 1506,-823 150,-127 312,-298 430,-451 24,-30 101,-144 125,-160l0 -1769 -1760 0c12,6 206,31 244,39 79,16 149,36 223,61 150,50 264,107 388,180 221,129 439,344 576,550 73,109 144,237 196,373 80,209 34,266 -79,402 -131,156 -274,292 -436,417 -50,39 -104,87 -155,115 -6,-319 0,-643 0,-963 0,-172 22,-315 -145,-339 -125,-17 -354,-15 -410,60 -46,63 -34,119 -34,213l0 1202c1,205 -63,192 -216,254 -2,-308 0,-618 0,-926 0,-159 32,-317 -85,-381 -64,-36 -367,-31 -426,4 -110,65 -78,235 -78,386l0 928c1,191 -43,207 -217,237l0 -900c0,-116 15,-170 -58,-235 -61,-54 -168,-38 -264,-39 -282,-1 -265,67 -265,322 0,98 0,195 0,293 0,592 69,667 -206,694 -100,9 -180,21 -253,-26 -129,-84 -245,-435 -284,-607 -8,-37 -36,-234 -43,-246z"></path>
     <path class="fil3" d="M1828 3862l290 0 357 -71c681,-183 1221,-763 1353,-1460 5,-28 12,-56 17,-86 2,-16 3,-33 5,-50 2,-8 3,-18 5,-26 4,-20 0,-9 7,-22l0 -303c-24,16 -101,130 -125,160 -118,153 -280,324 -430,451 -435,370 -951,644 -1506,823 -275,88 -425,123 -694,177 -49,10 -213,31 -242,45 136,137 467,259 680,314 61,16 251,32 283,48z"></path>
     <path class="fil2" d="M2118 3862l1744 0 0 -1715c-7,13 -3,2 -7,22 -2,8 -3,18 -5,26 -2,17 -3,34 -5,50 -5,30 -12,58 -17,86 -132,697 -672,1277 -1353,1460l-357 71z"></path>
     <path class="fil2" d="M75 1795c17,-31 33,-341 196,-672 265,-536 776,-916 1375,-1021 42,-7 160,-12 188,-27l-1759 0 0 1720z"></path>
    </g>
   </g>
  </g>
  <path class="fil4" d="M1969 75c1045,0 1893,848 1893,1894 0,1045 -848,1893 -1893,1893 -1046,0 -1894,-848 -1894,-1893 0,-1046 848,-1894 1894,-1894z"></path>
 </g>
</svg>